<svg class="svg-icon" style="width: 1em; height: 1em;vertical-align: middle;fill: currentColor;overflow: hidden;" viewBox="0 0 1024 1024" version="1.1" xmlns="http://www.w3.org/2000/svg"><path d="M512.1 683.1m-38.8 0a38.8 38.8 0 1 0 77.6 0 38.8 38.8 0 1 0-77.6 0Z" fill="#313232" /><path d="M944 344.6H727.3c-7.8 0-14.2 6.4-14.2 14.2 0 7.8 6.4 14.2 14.2 14.2h94.2v94.3c-8 2.8-14.9 7.9-19.9 14.6L616 427.6c-4.6-50.3-42.1-90.5-89.9-97.2 0-0.4 0.1-0.7 0.1-1.1V191h94.2c7.8 0 14.2-6.4 14.2-14.2 0-7.8-6.4-14.2-14.2-14.2H403.7c-7.8 0-14.2 6.4-14.2 14.2 0 7.8 6.4 14.2 14.2 14.2h94.2v138.3c0 0.4 0.1 0.7 0.1 1.1-47.6 6.7-85 46.5-89.9 96.5l-188 54.9c-5-6.6-11.9-11.7-19.9-14.6v-94.3h94.2c7.8 0 14.2-6.4 14.2-14.2 0-7.8-6.4-14.2-14.2-14.2H77.8c-7.8 0-14.2 6.4-14.2 14.2 0 7.8 6.4 14.2 14.2 14.2H172v94.3c-16.6 5.9-28.5 21.5-28.5 40.1 0 23.6 19.1 42.7 42.7 42.7 18.5 0 34.2-11.9 40.1-28.4l159.3-28.3C305.3 546.6 251 648.3 251 764.8c0 9.1 7.4 16.5 16.5 16.5s16.5-7.4 16.5-16.5c0-113.9 56.8-212 137.8-254.9v84.8h-23.1c-11.1 0-20.1 9.1-20.1 20.1v136.4c0 11.1 9.1 20.1 20.1 20.1h226.7c11.1 0 20.1-9.1 20.1-20.1V614.9c0-11.1-9.1-20.1-20.1-20.1h-21.2V510c81 42.9 137.8 140.9 137.8 254.9 0 9.1 7.4 16.5 16.5 16.5S775 774 775 764.9c0-115.8-53.6-216.9-133-270.4l153.4 27.2c5.9 16.5 21.5 28.4 40.1 28.4 23.6 0 42.7-19.1 42.7-42.7 0-18.6-12-34.2-28.5-40.1V373H944c7.8 0 14.2-6.4 14.2-14.2 0-7.8-6.4-14.2-14.2-14.2zM512.1 747.7c-35.7 0-64.6-28.9-64.6-64.6 0-35.7 28.9-64.6 64.6-64.6s64.6 28.9 64.6 64.6c0 35.6-28.9 64.6-64.6 64.6zM549 594.8c0.1-0.8 0.3-1.6 0.3-2.5V582c0-8.5-7-15.5-15.5-15.5h-43.4c-8.5 0-15.5 7-15.5 15.5v10.3c0 0.9 0.1 1.7 0.3 2.5h-25v-69.4c17.3 13.3 38.7 21.3 61.9 21.3 24.1 0 46.2-8.6 63.9-22.8v70.9h-27z" fill="#313232" /></svg>