<svg class="svg-icon" style="width: 1em; height: 1em;vertical-align: middle;fill: #e1cd90;overflow: hidden;" viewBox="0 0 1024 1024" version="1.1" xmlns="http://www.w3.org/2000/svg"><path d="M509.2 700.3m-95.8 0a95.8 95.8 0 1 0 191.6 0 95.8 95.8 0 1 0-191.6 0Z" fill="#303232" /><path d="M794.8 113.8c-93.6 0-166.9 41.6-166.9 94.7 0 50.4 66 90.3 152.7 94.3v33.6c-0.5 0-1-0.1-1.5-0.1H586.6c-12.7-30.2-42.6-51.4-77.4-51.4s-64.7 21.2-77.4 51.4H247.6c-0.5 0-1 0.1-1.5 0.1v-35.7c86.7-4 152.7-43.9 152.7-94.3 0-53.1-73.3-94.7-166.9-94.7-93.6 0-166.9 41.6-166.9 94.7 0 50.4 66 90.3 152.7 94.3v70.7c0 16.4 13.5 29.9 29.9 29.9h184.3c7.7 18.3 21.7 33.3 39.4 42.3v45.8c-100 18-176.2 105.6-176.2 210.7 0 118.1 96.1 214.2 214.2 214.2s214.2-96.1 214.2-214.2c0-106.8-78.6-195.6-181-211.6v-42.6c19.9-8.6 35.9-24.6 44.3-44.6h192.6c16.5 0 29.9-13.5 29.9-29.9v-68.7c86.7-4 152.7-43.9 152.7-94.3-0.3-53-73.6-94.6-167.2-94.6zM89.9 206.5c0-37.8 65-69.8 142-69.8s142 32 142 69.8c0 35.5-57.2 65.8-127.8 69.5v-48.8c10.4-4 17.6-12.1 17.6-21.5 0-13.4-14.2-24.2-31.8-24.2s-31.8 10.8-31.8 24.2c0 9.5 7.2 17.6 17.6 21.5V276c-70.6-3.7-127.8-34-127.8-69.5z m583.6 493.8c0 90.6-73.7 164.4-164.4 164.4S344.7 791 344.7 700.3c0-80 57.5-146.8 133.4-161.3 1.1 0.4 2.2 0.7 3.4 0.7h50.3c1.7 0 3.2-0.5 4.7-1.2 77.7 13 137 80.5 137 161.8zM809.1 278v-50.9c10.4-4 17.6-12.1 17.6-21.5 0-13.4-14.2-24.2-31.8-24.2s-31.8 10.8-31.8 24.2c0 9.5 7.2 17.6 17.6 21.5V278c-70.6-3.6-127.8-34-127.8-69.5 0-37.8 65-69.8 142-69.8s142 32 142 69.8c0 35.5-57.2 65.9-127.8 69.5z" fill="#e1cd90" /></svg>