<svg class="svg-icon" style="width: 1em; height: 1em;vertical-align: middle;fill: currentColor;overflow: hidden;" viewBox="0 0 1024 1024" version="1.1" xmlns="http://www.w3.org/2000/svg"><path d="M623.36 324.48c-12.8 0-19.84-5.12-24.96-9.6-4.48-3.84-8.32-6.4-15.36-6.4-7.68 0-10.88 2.56-15.36 6.4-5.76 4.48-12.16 9.6-24.96 9.6s-19.84-5.12-24.96-9.6c-4.48-3.84-8.32-6.4-15.36-6.4-7.68 0-10.88 2.56-15.36 6.4-5.76 4.48-12.16 9.6-24.96 9.6s-19.84-5.12-24.96-9.6c-4.48-3.84-8.32-6.4-15.36-6.4-7.68 0-10.88 2.56-15.36 6.4-5.76 4.48-12.16 9.6-24.96 9.6h-2.56c-4.48 0-7.04-3.84-7.04-8.32 0-4.48 3.84-7.68 8.32-7.04h1.92c7.68 0 10.88-2.56 15.36-6.4 5.76-4.48 12.16-9.6 24.96-9.6s19.84 5.12 24.96 9.6c4.48 3.84 8.32 6.4 15.36 6.4 7.68 0 10.88-2.56 15.36-6.4 5.76-4.48 12.16-9.6 24.96-9.6s19.84 5.12 24.96 9.6c4.48 3.84 8.32 6.4 15.36 6.4 7.68 0 10.88-2.56 15.36-6.4 5.76-4.48 12.16-9.6 24.96-9.6s19.84 5.12 24.96 9.6c4.48 3.84 8.32 6.4 15.36 6.4h1.92c4.48 0 7.68 2.56 8.32 7.04 0 4.48-2.56 7.68-7.04 8.32h-3.84zM257.92 456.32c-12.8 0-19.84-5.12-24.96-9.6-4.48-3.84-8.32-6.4-15.36-6.4-5.12 0-8.32 1.28-10.24 2.56-3.84 1.92-8.32 1.28-10.24-2.56-1.92-3.84-1.28-8.32 2.56-10.24 5.76-3.2 11.52-4.48 17.92-4.48 12.8 0 19.84 5.12 24.96 9.6 4.48 3.84 8.32 6.4 15.36 6.4 7.68 0 10.88-2.56 15.36-6.4 5.76-4.48 12.16-9.6 24.96-9.6s19.84 5.12 24.96 9.6c1.92 1.28 3.2 2.56 5.12 3.84 3.84 1.92 4.48 7.04 2.56 10.24-1.92 3.84-7.04 4.48-10.24 2.56-2.56-1.28-4.48-3.2-7.04-5.12-4.48-3.84-8.32-6.4-15.36-6.4-7.68 0-10.88 2.56-15.36 6.4-5.12 4.48-12.16 9.6-24.96 9.6zM835.84 691.2c-12.8 0-19.84-5.12-24.96-9.6-4.48-3.84-8.32-6.4-15.36-6.4-7.68 0-10.88 2.56-15.36 6.4-5.76 4.48-12.16 9.6-24.96 9.6s-19.84-5.12-24.96-9.6c-2.56-1.92-5.12-3.84-8.32-5.12-3.84-1.28-5.76-5.76-4.48-9.6 1.28-3.84 5.76-5.76 9.6-4.48 5.12 1.92 8.96 5.12 12.16 7.68 4.48 3.84 8.32 6.4 15.36 6.4 7.68 0 10.88-2.56 15.36-6.4 5.76-4.48 12.16-9.6 24.96-9.6s19.84 5.12 24.96 9.6c4.48 3.84 8.32 6.4 15.36 6.4 7.68 0 10.88-2.56 15.36-6.4 3.2-2.56 7.04-5.76 12.16-7.68 3.84-1.28 8.32 0.64 9.6 4.48 1.28 3.84-0.64 8.32-4.48 9.6-3.2 1.28-5.12 3.2-8.32 5.12-3.84 3.84-10.88 9.6-23.68 9.6z" fill="#00ABE0" /><path d="M338.56 103.04c-1.92 0-3.84-0.64-5.12-1.92-7.68-7.68-21.76-7.68-30.08 0-2.56 2.56-7.68 2.56-10.88 0-7.68-7.68-21.76-7.68-30.08 0-3.2 3.2-7.68 3.2-10.88 0s-3.2-7.68 0-10.88c7.04-7.04 16-10.88 25.6-10.88 7.04 0 14.08 1.92 20.48 6.4 5.76-3.84 12.8-6.4 20.48-6.4 9.6 0 18.56 3.84 25.6 10.88 3.2 3.2 3.2 7.68 0 10.88-1.28 1.28-3.2 1.92-5.12 1.92zM176 266.88c-1.92 0-3.84-0.64-5.12-1.92a21.248 21.248 0 0 0-30.08 0c-3.2 3.2-7.68 3.2-10.88 0a21.248 21.248 0 0 0-30.08 0c-3.2 3.2-7.68 3.2-10.88 0s-3.2-7.68 0-10.88c12.16-12.16 32-14.08 46.08-4.48 14.08-9.6 33.28-8.32 46.08 4.48 3.2 3.2 3.2 7.68 0 10.88-1.28 1.28-3.2 1.92-5.12 1.92zM826.88 428.16c-1.92 0-3.84-0.64-5.12-1.92-3.2-3.2-3.2-7.68 0-10.88 7.04-7.04 16-10.88 25.6-10.88 7.04 0 14.08 1.92 20.48 6.4 5.76-3.84 12.8-6.4 20.48-6.4 9.6 0 18.56 3.84 25.6 10.88 3.2 3.2 3.2 7.68 0 10.88s-7.68 3.2-10.88 0c-7.68-7.68-21.76-7.68-30.08 0-2.56 2.56-7.68 2.56-10.88 0-7.68-7.68-21.76-7.68-30.08 0-1.28 1.28-3.2 1.92-5.12 1.92zM657.28 840.96H165.76c-2.56 0-5.12-1.28-6.4-3.2-1.28-1.92-1.92-4.48-0.64-7.04L474.24 60.16c4.48-10.88 14.72-17.92 26.88-17.92 12.16 0 22.4 7.04 26.88 17.92l225.92 551.04c1.28 3.84 0 8.32-3.84 9.6-3.84 1.28-8.32 0-9.6-3.84L514.56 65.92C512 60.8 507.52 57.6 501.12 57.6c-5.76 0-10.88 3.2-12.8 8.32L177.28 825.6h480c4.48 0 7.68 3.2 7.68 7.68s-3.84 7.68-7.68 7.68z" fill="#211D1C" /><path d="M947.84 874.88h-60.16c-4.48 0-7.68-3.2-7.68-7.68s3.2-7.68 7.68-7.68h48.64l-128-312.96c-1.92-5.12-7.04-8.96-12.8-8.32-5.76 0-10.88 3.2-12.8 8.32l-128 312.96H780.8c4.48 0 7.68 3.2 7.68 7.68s-3.2 7.68-7.68 7.68h-137.6c-2.56 0-5.12-1.28-6.4-3.2-1.28-1.92-1.92-4.48-0.64-7.04l132.48-323.84c4.48-10.88 14.72-17.92 26.88-17.92 12.16 0 22.4 7.04 26.88 17.92l132.48 323.84c0.64 2.56 0.64 5.12-0.64 7.04-1.28 2.56-3.84 3.2-6.4 3.2z" fill="#211D1C" /><path d="M904.96 916.48h-140.8c-2.56 0-5.12-1.28-6.4-3.2-1.28-1.92-1.92-4.48-0.64-7.04l50.56-123.52c4.48-10.88 14.72-17.92 26.88-17.92 12.16 0 22.4 7.04 26.88 17.92l50.56 123.52c0.64 2.56 0.64 5.12-0.64 7.04-1.28 1.92-3.84 3.2-6.4 3.2z m-129.92-15.36h118.4l-46.08-113.28c-1.92-5.12-7.04-8.32-12.8-8.32-5.76 0-10.88 3.2-12.8 8.32l-46.72 113.28zM179.84 806.4H55.04c-2.56 0-5.12-1.28-6.4-3.2-1.28-1.92-1.92-4.48-0.64-7.04l224-547.2c4.48-10.88 14.72-17.92 26.88-17.92 12.16 0 22.4 7.04 26.88 17.92l42.88 104.32c1.28 3.84 0 8.32-3.84 9.6-3.84 1.28-8.32 0-9.6-3.84l-42.88-104.32c-1.92-5.12-7.04-8.32-12.8-8.32-5.76 0-10.88 3.2-12.8 8.32l-219.52 536.32h113.92c4.48 0 7.68 3.2 7.68 7.68s-4.48 7.68-8.96 7.68z" fill="#211D1C" /><path d="M686.72 269.44c-3.2 0-6.4-1.92-7.04-5.12-1.28-3.84 0.64-8.32 5.12-9.6l8.96-2.56c3.84-1.28 8.32 0.64 9.6 5.12 1.28 3.84-0.64 8.32-5.12 9.6l-8.96 2.56h-2.56zM832.64 222.08c-3.2 0-6.4-1.92-7.04-5.12-1.28-3.84 0.64-8.32 5.12-9.6l8.96-2.56c3.84-1.28 8.32 0.64 9.6 5.12 1.28 3.84-0.64 8.32-5.12 9.6l-8.96 2.56h-2.56zM698.24 292.48c-2.56 0-4.48-1.28-6.4-3.2-2.56-3.2-1.92-8.32 1.92-10.88l7.68-5.12c3.2-2.56 8.32-1.92 10.88 1.92 2.56 3.2 1.92 8.32-1.92 10.88l-7.68 5.12c-1.28 0.64-3.2 1.28-4.48 1.28zM822.4 202.24c-2.56 0-4.48-1.28-6.4-3.2-2.56-3.2-1.92-8.32 1.92-10.88l7.68-5.12c3.2-2.56 8.32-1.92 10.88 1.92 2.56 3.2 1.92 8.32-1.92 10.88l-7.68 5.12c-1.28 0.64-3.2 1.28-4.48 1.28zM716.16 310.4c-1.28 0-3.2-0.64-4.48-1.28-3.2-2.56-3.84-7.04-1.92-10.88l5.12-7.68c2.56-3.2 7.04-3.84 10.88-1.92 3.2 2.56 3.84 7.04 1.92 10.88l-5.12 7.68c-1.92 1.92-3.84 3.2-6.4 3.2zM806.4 186.24c-1.28 0-3.2-0.64-4.48-1.28-3.2-2.56-3.84-7.04-1.92-10.88l5.12-7.68c2.56-3.2 7.04-3.84 10.88-1.92 3.2 2.56 3.84 7.04 1.92 10.88l-5.12 7.68c-1.92 1.92-4.48 3.2-6.4 3.2zM738.56 321.92c-0.64 0-1.28 0-2.56-0.64-3.84-1.28-6.4-5.76-5.12-9.6l2.56-8.96c1.28-3.84 5.76-6.4 9.6-5.12 3.84 1.28 6.4 5.76 5.12 9.6l-2.56 8.96c-0.64 3.84-3.84 5.76-7.04 5.76zM785.92 176c-0.64 0-1.28 0-2.56-0.64-3.84-1.28-6.4-5.76-5.12-9.6l2.56-8.96c1.28-3.84 5.76-6.4 9.6-5.12 3.84 1.28 6.4 5.76 5.12 9.6l-2.56 8.96c-0.64 3.84-3.84 5.76-7.04 5.76zM764.16 325.76c-4.48 0-7.68-3.2-7.68-7.68v-8.96c0-4.48 3.2-7.68 7.68-7.68s7.68 3.2 7.68 7.68v8.96c-0.64 4.48-3.84 7.68-7.68 7.68zM764.16 172.16c-4.48 0-7.68-3.2-7.68-7.68v-8.96c0-4.48 3.2-7.68 7.68-7.68s7.68 3.2 7.68 7.68v8.96c-0.64 4.48-3.84 7.68-7.68 7.68zM691.84 244.48h-8.96c-4.48 0-7.68-3.2-7.68-7.68s3.2-7.68 7.68-7.68h8.96c4.48 0 7.68 3.2 7.68 7.68s-3.2 7.68-7.68 7.68zM844.8 244.48h-8.96c-4.48 0-7.68-3.2-7.68-7.68s3.2-7.68 7.68-7.68h8.96c4.48 0 7.68 3.2 7.68 7.68s-3.2 7.68-7.68 7.68zM789.12 321.92c-3.2 0-6.4-1.92-7.04-5.12l-2.56-8.96c-1.28-3.84 0.64-8.32 5.12-9.6 3.84-1.28 8.32 0.64 9.6 5.12l2.56 8.96c1.28 3.84-0.64 8.32-5.12 9.6h-2.56zM811.52 310.4c-2.56 0-4.48-1.28-6.4-3.2l-5.12-7.68c-2.56-3.2-1.92-8.32 1.92-10.88 3.2-2.56 8.32-1.92 10.88 1.92l5.12 7.68c2.56 3.2 1.92 8.32-1.92 10.88-1.28 0.64-2.56 1.28-4.48 1.28zM829.44 292.48c-1.28 0-3.2-0.64-4.48-1.28l-7.68-5.12c-3.2-2.56-3.84-7.04-1.92-10.88 2.56-3.2 7.04-3.84 10.88-1.92l7.68 5.12c3.2 2.56 3.84 7.04 1.92 10.88-1.28 1.92-3.84 3.2-6.4 3.2zM840.96 269.44c-0.64 0-1.28 0-2.56-0.64l-8.96-2.56c-3.84-1.28-6.4-5.76-5.12-9.6 1.28-3.84 5.76-6.4 9.6-5.12l8.96 2.56c3.84 1.28 6.4 5.76 5.12 9.6-0.64 3.84-3.84 5.76-7.04 5.76z" fill="#00ABE0" /><path d="M844.8 244.48h-8.96c-4.48 0-7.68-3.2-7.68-7.68s3.2-7.68 7.68-7.68h8.96c4.48 0 7.68 3.2 7.68 7.68s-3.2 7.68-7.68 7.68zM695.04 222.08c-0.64 0-1.28 0-2.56-0.64l-8.96-2.56c-3.84-1.28-6.4-5.76-5.12-9.6 1.28-3.84 5.76-6.4 9.6-5.12l8.96 2.56c3.84 1.28 6.4 5.76 5.12 9.6-0.64 3.84-3.84 5.76-7.04 5.76zM705.28 202.24c-1.28 0-3.2-0.64-4.48-1.28l-7.68-5.12c-3.2-2.56-3.84-7.04-1.92-10.88 2.56-3.2 7.04-3.84 10.88-1.92l7.68 5.12c3.2 2.56 3.84 7.04 1.92 10.88-1.28 1.92-3.84 3.2-6.4 3.2zM721.28 186.24c-2.56 0-4.48-1.28-6.4-3.2l-5.12-7.68c-2.56-3.2-1.92-8.32 1.92-10.88 3.2-2.56 8.32-1.92 10.88 1.92l5.12 7.68c2.56 3.2 1.92 8.32-1.92 10.88-1.28 0.64-2.56 1.28-4.48 1.28zM741.76 176c-3.2 0-6.4-1.92-7.04-5.12l-2.56-8.96c-1.28-3.84 0.64-8.32 5.12-9.6 3.84-1.28 8.32 0.64 9.6 5.12l2.56 8.96c1.28 3.84-0.64 8.32-5.12 9.6h-2.56zM691.84 244.48h-8.96c-4.48 0-7.68-3.2-7.68-7.68s3.2-7.68 7.68-7.68h8.96c4.48 0 7.68 3.2 7.68 7.68s-3.2 7.68-7.68 7.68zM764.16 284.8c-26.88 0-48-21.76-48-48 0-26.88 21.76-48 48-48 26.88 0 48 21.76 48 48 0 26.88-21.76 48-48 48z m0-80.64c-17.92 0-33.28 14.72-33.28 33.28 0 17.92 14.72 33.28 33.28 33.28 17.92 0 33.28-14.72 33.28-33.28-0.64-18.56-15.36-33.28-33.28-33.28z" fill="#00ABE0" /><path d="M988.8 996.48H697.6c-17.92 0-32.64-14.72-32.64-32.64 0-9.6-7.68-17.28-17.28-17.28H392.32c-17.92 0-32.64-14.72-32.64-32.64 0-9.6-7.68-17.28-17.28-17.28h-243.2c-11.52 0-16.64-6.4-19.2-12.16-1.92-5.76-1.92-12.8-1.92-19.84v-0.64c0-9.6-7.68-17.28-17.28-17.28H14.08c-4.48 0-7.68-3.2-7.68-7.68s3.2-7.68 7.68-7.68h46.08c17.92 0 32.64 14.72 32.64 32.64v0.64c0 5.76 0 11.52 1.28 14.72 0.64 1.28 0.64 1.92 4.48 1.92h243.2c17.92 0 32.64 14.72 32.64 32.64 0 9.6 7.68 17.28 17.28 17.28h255.36c17.92 0 32.64 14.72 32.64 32.64 0 9.6 7.68 17.28 17.28 17.28h290.56c4.48 0 7.68 3.2 7.68 7.68 1.28 4.48-2.56 7.68-6.4 7.68z" fill="#211D1C" /></svg>